# xmcd CD database file
#
# Track frame offsets:
#	150
#	18747
#	31702
#	46690
#	62042
#	86295
#	104320
#	118652
#	153802
#
# Disc length: 2192 seconds
#
# Revision: 2
# Processed by: cddbd v1.4PL0 Copyright (c) Steve Scherf et al.
# Submitted via: CDex 1.50beta10
#
DISCID=5f088e09
DTITLE=Jon Cleary - Alligator Lips and Dirty Rice
DYEAR=1989
DGENRE=Jazz+Funk
TTITLE0=Go Ahead Baby
TTITLE1=Long Distance Lover
TTITLE2=C'mon Second Line
TTITLE3=Groove Me
TTITLE4=In The Mood
TTITLE5=Big Chief
TTITLE6=Let Them Talk
TTITLE7=Pick Up The Pieces
TTITLE8=Burnt Mouth Boogie
EXTD=YEAR: 1989
EXTT0=
EXTT1=
EXTT2=
EXTT3=
EXTT4=
EXTT5=
EXTT6=
EXTT7=
EXTT8=
PLAYORDER=
